<?xml version="1.0" encoding="iso-8859-1"?>
<!-- Generator: Adobe Illustrator 14.0.0, SVG Export Plug-In . SVG Version: 6.00 Build 43363)  -->
<!DOCTYPE svg PUBLIC "-//W3C//DTD SVG 1.1//EN" "http://www.w3.org/Graphics/SVG/1.1/DTD/svg11.dtd">
<svg version="1.1" id="&#x56FE;&#x5C42;_1" xmlns="http://www.w3.org/2000/svg" xmlns:xlink="http://www.w3.org/1999/xlink" x="0px"
	 y="0px" width="20px" height="20px" viewBox="0 0 20 20" style="enable-background:new 0 0 20 20;" xml:space="preserve">
<circle style="fill:#FFDBDB;" cx="10" cy="10" r="10"/>
<g>
	<path style="fill:#FFFFFF;" d="M15.476,4.524c0.347,0.347,0.347,0.908,0,1.255l-9.697,9.697c-0.347,0.347-0.908,0.347-1.254,0l0,0
		c-0.347-0.346-0.347-0.908,0-1.254l9.697-9.698C14.567,4.178,15.13,4.178,15.476,4.524L15.476,4.524z"/>
	<path style="fill:#FFFFFF;" d="M4.524,4.524c0.346-0.346,0.908-0.346,1.254,0l9.697,9.698c0.347,0.346,0.347,0.908,0,1.254l0,0
		c-0.346,0.347-0.908,0.347-1.254,0L4.524,5.779C4.178,5.432,4.178,4.871,4.524,4.524L4.524,4.524z"/>
</g>
</svg>
